<?xml version="1.0" encoding="UTF-8" standalone="no"?>
<!DOCTYPE svg PUBLIC "-//W3C//DTD SVG 1.1//EN" "http://www.w3.org/Graphics/SVG/1.1/DTD/svg11.dtd">
<svg width="100%" height="100%" viewBox="0 0 2597 686" version="1.1" xmlns="http://www.w3.org/2000/svg" xmlns:xlink="http://www.w3.org/1999/xlink" xml:space="preserve" xmlns:serif="http://www.serif.com/" style="fill-rule:evenodd;clip-rule:evenodd;stroke-linejoin:round;stroke-miterlimit:2;">
    <g transform="matrix(1,0,0,1,0,-2)">
        <g id="scala-logo-subline-pos" transform="matrix(4.16667,0,0,4.16667,0,0)">
            <path d="M74.347,8.519C71.4,7.243 68.646,6.117 66.095,5.158C63.526,4.199 60.94,3.399 58.318,2.756C55.688,2.123 52.97,1.639 50.154,1.322C47.339,0.997 44.208,0.838 40.75,0.838C35.498,0.838 30.606,1.349 26.059,2.378C21.519,3.399 17.578,5 14.252,7.172C10.927,9.354 8.305,12.17 6.387,15.618C4.461,19.075 3.502,23.236 3.502,28.102C3.502,31.049 3.889,33.67 4.654,35.975C5.419,38.28 6.669,40.418 8.402,42.406C10.126,44.394 12.396,46.374 15.211,48.353C18.026,50.341 21.554,52.488 25.777,54.784C26.929,55.426 28.777,56.324 31.346,57.476C33.897,58.628 36.492,59.975 39.114,61.505C41.735,63.045 44.014,64.672 45.932,66.405C47.85,68.13 48.809,69.951 48.809,71.878C48.809,74.561 47.594,76.417 45.167,77.446C42.729,78.467 40.046,78.977 37.099,78.977C32.366,78.977 27.818,78.211 23.472,76.672C19.117,75.141 14.639,73.091 10.029,70.531L0.044,88.575C5.552,91.523 11.085,93.924 16.654,95.78C22.223,97.628 28.97,98.56 36.906,98.56C48.043,98.56 56.779,96.229 63.113,91.558C69.447,86.886 72.623,80.006 72.623,70.919C72.623,66.441 71.911,62.754 70.512,59.878C69.095,56.992 67.248,54.503 64.943,52.391C62.638,50.28 59.911,48.423 56.779,46.822C53.638,45.221 50.348,43.524 46.891,41.729C44.462,40.453 42.158,39.239 39.985,38.087C37.803,36.934 35.85,35.782 34.125,34.629C32.401,33.477 31.02,32.263 30,30.978C28.97,29.703 28.46,28.295 28.46,26.755C28.46,24.451 29.674,22.788 32.111,21.767C34.539,20.747 37.231,20.228 40.169,20.228C44.656,20.228 48.624,20.676 52.072,21.574C55.53,22.471 59.691,24.195 64.556,26.755L74.347,8.519ZM188.195,73.989C185.767,75.009 182.978,76.197 179.847,77.543C176.706,78.88 172.386,79.558 166.888,79.558C162.401,79.558 158.214,78.783 154.308,77.253C150.401,75.713 147.015,73.575 144.138,70.822C141.252,68.068 138.982,64.769 137.32,60.934C135.657,57.089 134.821,52.805 134.821,48.072C134.821,43.594 135.622,39.591 137.223,36.072C138.824,32.553 140.962,29.571 143.654,27.143C146.346,24.714 149.443,22.858 152.961,21.574C156.48,20.298 160.228,19.656 164.196,19.656C168.806,19.656 172.642,20.36 175.721,21.767C178.791,23.175 181.79,24.97 184.738,27.143L195.11,9.478C190.755,7.049 186.181,4.964 181.377,3.24C176.582,1.507 170.53,0.645 163.237,0.645C155.17,0.645 147.876,1.833 141.349,4.199C134.821,6.566 129.252,9.864 124.643,14.087C120.041,18.31 116.487,23.395 113.989,29.351C111.499,35.298 110.25,41.861 110.25,49.031C110.25,56.456 111.464,63.203 113.892,69.282C116.329,75.361 119.848,80.578 124.458,84.933C129.059,89.278 134.628,92.64 141.155,95.006C147.683,97.372 155.046,98.56 163.237,98.56C169.377,98.56 174.946,98.085 179.943,97.126C184.932,96.158 190.43,94.407 196.447,91.839L188.195,73.989ZM315.292,96.643L279.389,2.378L259.04,2.378L223.139,96.643L247.71,96.643L255.196,75.907L283.612,75.907L290.72,96.643L315.292,96.643ZM277.85,58.241L259.806,58.241L269.404,28.102L277.85,58.241ZM416.471,96.643L416.471,78.977L377.683,78.977L377.683,2.378L354.836,2.378L354.836,96.643L416.471,96.643ZM536.459,96.643L500.557,2.378L480.208,2.378L444.306,96.643L468.877,96.643L476.363,75.907L504.779,75.907L511.888,96.643L536.459,96.643ZM499.025,58.241L480.974,58.241L490.571,28.102L499.025,58.241Z" style="fill:white;fill-rule:nonzero;"/>
            <path d="M21.06,162.234L13.318,150.446C15.315,150.13 16.907,149.223 18.095,147.718C19.292,146.214 19.89,144.358 19.89,142.168C19.89,139.589 18.992,137.619 17.215,136.247C15.438,134.875 12.843,134.197 9.447,134.197L-0.001,134.197L-0.001,162.234L4.459,162.234L4.459,150.797L8.506,150.797L15.896,162.234L21.06,162.234ZM13.547,145.924C13.239,146.197 12.957,146.417 12.702,146.575C12.447,146.724 12.148,146.847 11.822,146.927C11.488,147.006 11.083,147.05 10.617,147.068C10.151,147.094 9.561,147.103 8.858,147.103L4.459,147.103L4.459,137.892L8.858,137.892C9.676,137.892 10.327,137.901 10.793,137.919C11.259,137.936 11.655,137.971 11.963,138.006C12.28,138.042 12.535,138.121 12.729,138.244C12.922,138.358 13.142,138.499 13.371,138.648C14.505,139.475 15.078,140.707 15.078,142.343C15.078,143.831 14.567,145.027 13.547,145.924ZM57.842,162.234L46.405,133.493L41.998,133.493L30.561,162.234L35.021,162.234L38.188,154.431L50.214,154.431L53.443,162.234L57.842,162.234ZM48.983,150.797L39.42,150.797L44.232,138.244L48.983,150.797ZM93.154,162.234L85.413,150.446C87.41,150.13 89.002,149.223 90.19,147.718C91.386,146.214 91.984,144.358 91.984,142.168C91.984,139.589 91.096,137.619 89.31,136.247C87.533,134.875 84.946,134.197 81.542,134.197L72.093,134.197L72.093,162.234L76.554,162.234L76.554,150.797L80.601,150.797L87.99,162.234L93.154,162.234ZM85.65,145.924C85.333,146.197 85.052,146.417 84.797,146.575C84.542,146.724 84.251,146.847 83.917,146.927C83.583,147.006 83.187,147.05 82.712,147.068C82.246,147.094 81.656,147.103 80.953,147.103L76.554,147.103L76.554,137.892L80.953,137.892C81.771,137.892 82.422,137.901 82.888,137.919C83.363,137.936 83.75,137.971 84.067,138.006C84.375,138.042 84.63,138.121 84.823,138.244C85.017,138.358 85.237,138.499 85.475,138.648C86.601,139.475 87.172,140.707 87.172,142.343C87.172,143.831 86.662,145.027 85.65,145.924ZM125.776,162.234L125.776,158.54L112.518,158.54L112.518,149.68L123.189,149.68L123.189,145.986L112.518,145.986L112.518,137.892L125.424,137.892L125.424,134.197L108.058,134.197L108.058,162.234L125.776,162.234ZM184.023,136.361C182.501,135.428 181.006,134.743 179.537,134.311C178.068,133.88 176.44,133.67 174.637,133.67C172.411,133.67 170.344,134.039 168.452,134.778C166.552,135.525 164.907,136.537 163.525,137.831C162.136,139.124 161.044,140.645 160.262,142.405C159.478,144.165 159.092,146.065 159.092,148.097C159.092,150.244 159.478,152.223 160.262,154.017C161.044,155.821 162.145,157.37 163.552,158.654C164.959,159.947 166.64,160.95 168.593,161.68C170.555,162.402 172.701,162.762 175.05,162.762C176.414,162.762 177.76,162.622 179.071,162.349C180.381,162.076 181.833,161.61 183.434,160.941L182.15,157.66C181.56,157.976 181.032,158.214 180.566,158.39C180.091,158.566 179.625,158.715 179.159,158.83C178.684,158.953 178.2,159.032 177.689,159.067C177.179,159.102 176.59,159.129 175.93,159.129C173.853,159.129 172.138,158.891 170.766,158.425C169.394,157.95 168.188,157.212 167.132,156.191C166.077,155.135 165.25,153.894 164.669,152.469C164.08,151.036 163.79,149.505 163.79,147.859C163.79,146.338 164.053,144.93 164.581,143.636C165.109,142.343 165.839,141.244 166.781,140.32C167.713,139.405 168.839,138.693 170.15,138.182C171.461,137.672 172.921,137.417 174.522,137.417C175.34,137.417 176.15,137.487 176.959,137.629C177.76,137.76 178.472,137.927 179.097,138.121C179.607,138.323 180.038,138.525 180.39,138.737C180.742,138.957 181.244,139.299 181.912,139.766L184.023,136.361ZM216.345,162.234L216.345,158.54L203.087,158.54L203.087,134.197L198.627,134.197L198.627,162.234L216.345,162.234ZM256.592,142.379C255.811,140.601 254.728,139.062 253.365,137.769C251.992,136.484 250.347,135.472 248.438,134.752C246.52,134.03 244.444,133.67 242.218,133.67C239.949,133.67 237.864,134.03 235.972,134.752C234.072,135.472 232.427,136.484 231.046,137.769C229.656,139.062 228.582,140.601 227.817,142.379C227.052,144.156 226.673,146.1 226.673,148.212C226.673,150.323 227.052,152.276 227.817,154.052C228.582,155.83 229.656,157.37 231.046,158.654C232.427,159.947 234.072,160.95 235.972,161.68C237.864,162.402 239.949,162.762 242.218,162.762C244.444,162.762 246.52,162.402 248.438,161.68C250.347,160.95 251.992,159.947 253.365,158.654C254.728,157.37 255.811,155.83 256.592,154.052C257.368,152.276 257.764,150.323 257.764,148.212C257.764,146.1 257.368,144.156 256.592,142.379ZM252.186,152.496C251.641,153.824 250.893,154.976 249.934,155.953C248.975,156.938 247.831,157.695 246.503,158.25C245.165,158.795 243.74,159.067 242.218,159.067C240.687,159.067 239.263,158.795 237.934,158.25C236.605,157.695 235.453,156.938 234.477,155.953C233.491,154.976 232.735,153.824 232.189,152.496C231.635,151.168 231.362,149.742 231.362,148.212C231.362,146.689 231.635,145.264 232.189,143.927C232.735,142.598 233.491,141.455 234.477,140.496C235.453,139.546 236.605,138.79 237.934,138.244C239.263,137.69 240.687,137.417 242.218,137.417C243.74,137.417 245.165,137.69 246.503,138.244C247.831,138.79 248.975,139.546 249.934,140.496C250.893,141.455 251.641,142.598 252.186,143.927C252.74,145.264 253.013,146.689 253.013,148.212C253.013,149.742 252.74,151.168 252.186,152.496ZM292.082,137.892L292.082,134.197L267.74,134.197L267.74,137.892L277.707,137.892L277.707,162.234L282.106,162.234L282.106,137.892L292.082,137.892ZM332.321,162.234L332.321,134.197L327.923,134.197L327.923,145.986L310.205,145.986L310.205,134.197L305.753,134.197L305.753,162.234L310.205,162.234L310.205,149.68L327.923,149.68L327.923,162.234L332.321,162.234ZM356.374,134.197L351.913,134.197L351.913,162.234L356.374,162.234L356.374,134.197ZM401.425,162.587L401.425,134.197L397.379,134.197L397.379,156.481C397.264,156.093 397.105,155.68 396.912,155.25C396.719,154.827 396.499,154.449 396.27,154.141L380.426,134.197L375.966,134.197L375.966,162.234L380.074,162.234L380.074,140.232C380.197,140.548 380.417,140.927 380.751,141.376C381.086,141.834 381.35,142.15 381.543,142.343L397.379,162.587L401.425,162.587ZM444.902,149.68L440.441,149.68L440.441,158.54C439.069,158.777 438.005,158.926 437.239,159.005C436.483,159.085 435.744,159.129 435.04,159.129C433.245,159.129 431.574,158.838 430.025,158.276C428.486,157.704 427.131,156.929 425.978,155.926C424.826,154.932 423.929,153.745 423.278,152.381C422.636,151.009 422.311,149.522 422.311,147.922C422.311,146.399 422.609,144.992 423.19,143.698C423.779,142.405 424.598,141.288 425.653,140.355C426.709,139.414 427.958,138.684 429.384,138.156C430.809,137.629 432.366,137.364 434.046,137.364C435.137,137.364 436.307,137.487 437.539,137.743C438.77,137.998 439.835,138.323 440.732,138.711C441.128,138.904 441.77,139.255 442.668,139.766L444.55,136.071C443.564,135.56 442.809,135.2 442.263,134.989C441.709,134.769 441.084,134.567 440.38,134.373C439.598,134.171 438.612,134.021 437.415,133.898C436.228,133.784 435.066,133.722 433.932,133.722C431.583,133.722 429.41,134.083 427.413,134.813C425.425,135.534 423.7,136.537 422.258,137.831C420.806,139.124 419.671,140.645 418.853,142.405C418.035,144.165 417.621,146.083 417.621,148.159C417.621,150.27 418.044,152.214 418.879,153.991C419.724,155.768 420.885,157.317 422.372,158.628C423.858,159.938 425.618,160.967 427.65,161.707C429.683,162.446 431.917,162.824 434.336,162.824C435.516,162.824 436.87,162.727 438.418,162.525C439.958,162.332 441.356,162.076 442.615,161.768C442.888,161.689 443.204,161.601 443.582,161.505C443.952,161.408 444.392,161.275 444.902,161.117L444.902,149.68Z" style="fill:white;fill-rule:nonzero;"/>
            <rect x="461.776" y="131.464" width="161.389" height="33.537" style="fill:white;fill-rule:nonzero;"/>
        </g>
    </g>
</svg>
